<?xml version="1.0" encoding="UTF-8" standalone="no"?>
<svg
   xmlns:dc="http://purl.org/dc/elements/1.1/"
   xmlns:cc="http://creativecommons.org/ns#"
   xmlns:rdf="http://www.w3.org/1999/02/22-rdf-syntax-ns#"
   xmlns:svg="http://www.w3.org/2000/svg"
   xmlns="http://www.w3.org/2000/svg"
   id="svg6"
   version="1.1"
   fill="none"
   viewBox="0 0 24 24"
   height="24"
   width="24">
  <metadata
     id="metadata12">
    <rdf:RDF>
      <cc:Work
         rdf:about="">
        <dc:format>image/svg+xml</dc:format>
        <dc:type
           rdf:resource="http://purl.org/dc/dcmitype/StillImage" />
      </cc:Work>
    </rdf:RDF>
  </metadata>
  <defs
     id="defs10" />
  <path
     id="path2"
     fill="#364AFE"
     d="M18.3589 2.02686H5.64105C3.62995 2.02686 2 3.65724 2 5.66834V18.3316C2 20.3431 3.62995 21.9731 5.64105 21.9731H18.3589C20.3696 21.9731 22 20.3427 22 18.3316V5.66834C22.0004 3.65724 20.37 2.02686 18.3589 2.02686ZM18.4804 10.2993L11.6011 17.1786C11.3093 17.4709 10.9134 17.6348 10.5006 17.6348C10.0878 17.6348 9.69187 17.4704 9.40005 17.1786L5.99055 13.7691C5.38305 13.1612 5.38305 12.176 5.99098 11.5677C6.2828 11.2758 6.67826 11.1119 7.09106 11.1119C7.50386 11.1119 7.89931 11.2758 8.19114 11.5677L10.2231 13.6C10.2968 13.6737 10.3969 13.7153 10.501 13.7153C10.6051 13.7153 10.7052 13.6737 10.7789 13.6L16.2798 8.09875C16.572 7.80693 16.9675 7.64259 17.3807 7.64259C17.7931 7.64302 18.189 7.80693 18.4808 8.09875C19.0883 8.70667 19.0883 9.69184 18.4804 10.2993Z" />
  <rect
     id="rect4"
     stroke-width="2"
     stroke="#6F7DFE"
     rx="6"
     height="22.0004"
     width="22"
     y="1"
     x="1" />
</svg>
